<svg width="100" height="100" viewBox="0 0 100 100" fill="none" xmlns="http://www.w3.org/2000/svg">
<path fill-rule="evenodd" clip-rule="evenodd" d="M0 0H100V100H0V0ZM16.0521 52.3696C14.5051 51.1686 14.5051 48.8314 16.0521 47.6304L40.3602 28.7576C42.3312 27.2274 45.2 28.632 45.2 31.1272V39C45.2 39.5523 45.6477 40 46.2 40H77C79.7614 40 82 42.2386 82 45V55C82 57.7614 79.7614 60 77 60H46.2C45.6477 60 45.2 60.4477 45.2 61V68.8728C45.2 71.368 42.3312 72.7726 40.3602 71.2424L16.0521 52.3696Z" fill="#264158"/>
<path d="M16.0912 47.6221L40.6709 28.7147C42.6437 27.1971 45.5 28.6036 45.5 31.0926V39C45.5 39.5523 45.9477 40 46.5 40H77C79.7614 40 82 42.2386 82 45V54.5C82 57.2614 79.7614 59.5 77 59.5H46.5C45.9477 59.5 45.5 59.9477 45.5 60.5V68.9074C45.5 71.3964 42.6437 72.8029 40.6709 71.2853L16.0912 52.3779C14.5301 51.177 14.5301 48.823 16.0912 47.6221Z" stroke="black" stroke-width="3"/>
</svg>
