<svg width="203" height="203" viewBox="0 0 203 203" fill="none" xmlns="http://www.w3.org/2000/svg">
<path fill-rule="evenodd" clip-rule="evenodd" d="M169.497 79.8914L166.523 92.5788L179.211 105.068L192.889 102.689L198.242 120.333L188.925 126.676V146.501L198.242 150.862L192.889 166.523H177.427L166.523 177.823L169.497 189.916L152.844 197.845L144.122 189.916H127.668L118.35 197.845L103.68 189.916V177.823L91.1912 166.523H79.4949L72.5564 150.862L82.2703 146.501L84.2527 126.676L74.1424 118.35L79.4949 105.068H91.1912L103.68 92.5788V79.8914L118.35 73.5476L127.668 82.2703H144.122L152.844 73.5476L169.497 79.8914ZM158.197 120.333L142.338 111.015H125.091L115.971 118.35L111.015 131.038V146.501L120.928 157.404L139.166 162.162L156.215 153.439L161.765 137.183L158.197 120.333Z" fill="#E88E73" stroke="#131313" stroke-width="3"/>
<path d="M124.031 73.3916C122.32 70.5454 118.754 69.3 115.642 70.4229L115.343 70.5391L104.075 75.2061C100.995 76.4824 99.233 79.824 99.8796 83.0547L99.949 83.3662L99.95 83.3672C100.547 85.7655 101.182 88.2174 101.837 90.6602L102.093 91.6143L101.318 92.2256C97.9434 94.8909 94.8861 97.947 92.2224 101.317L91.6111 102.092L90.657 101.836C88.8252 101.345 86.9887 100.865 85.1736 100.404L83.3669 99.9492H83.366C80.0394 99.1207 76.5237 100.895 75.2058 104.074V104.075L70.5388 115.343L70.5242 115.378C69.2709 118.452 70.3895 122.04 73.1208 123.86L73.3914 124.031H73.3923C75.5081 125.303 77.6892 126.588 79.8806 127.853L80.7361 128.346L80.6208 129.326C80.1207 133.59 80.1224 137.912 80.6238 142.186L80.738 143.166L79.8835 143.66C77.7007 144.92 75.5175 146.204 73.3914 147.481V147.482C70.5465 149.192 69.3001 152.758 70.4216 155.87L70.5378 156.17L75.2048 167.438C76.4811 170.518 79.8222 172.28 83.0525 171.634L83.365 171.563L85.1746 171.108C86.9911 170.647 88.8282 170.168 90.6589 169.677L91.6121 169.421L92.2244 170.195C94.89 173.57 97.9469 176.627 101.316 179.29L102.091 179.902L101.835 180.855C101.341 182.698 100.86 184.538 100.4 186.348L99.948 188.146C99.1451 191.368 100.786 194.771 103.78 196.178L104.074 196.308L115.341 200.975C118.522 202.292 122.264 201.059 124.03 198.122H124.029C125.309 195.991 126.594 193.81 127.85 191.632L128.344 190.777L129.324 190.892C133.59 191.391 137.913 191.39 142.184 190.89L143.165 190.774L143.658 191.629C144.612 193.282 145.572 194.923 146.527 196.528L147.48 198.121C148.766 200.257 151.101 201.5 153.517 201.5C154.298 201.5 155.085 201.37 155.845 201.099L156.17 200.974L167.437 196.306C170.517 195.03 172.28 191.689 171.634 188.458L171.563 188.146C170.966 185.75 170.331 183.298 169.676 180.853L169.42 179.898L170.194 179.286C173.569 176.62 176.626 173.565 179.29 170.195L179.902 169.421L180.855 169.677C182.688 170.169 184.525 170.649 186.34 171.109L188.145 171.563C191.369 172.367 194.77 170.725 196.177 167.731L196.306 167.438L200.974 156.17H200.973C202.29 152.99 201.058 149.247 198.121 147.481L198.122 147.48C196.001 146.206 193.819 144.923 191.631 143.661L190.775 143.167L190.89 142.187C191.39 137.92 191.389 133.599 190.888 129.327L190.773 128.347L191.628 127.853C193.268 126.906 194.906 125.947 196.518 124.988L198.121 124.03C200.965 122.32 202.211 118.755 201.09 115.643L200.973 115.343L196.307 104.076C195.031 100.996 191.69 99.232 188.459 99.8789L188.146 99.9492C185.752 100.546 183.3 101.181 180.852 101.838L179.898 102.094L179.286 101.318C176.621 97.9437 173.565 94.8863 170.195 92.2236L169.421 91.6113L169.677 90.6572C170.167 88.8303 170.647 86.9951 171.108 85.1777L171.563 83.3672V83.3662C172.366 80.1451 170.725 76.7427 167.731 75.3359L167.437 75.2061L156.171 70.5391H156.17C153.089 69.2631 149.481 70.3798 147.652 73.1221L147.481 73.3916C146.211 75.5056 144.926 77.6875 143.661 79.8809L143.168 80.7363L142.187 80.6211C137.921 80.1213 133.599 80.1226 129.327 80.624L128.346 80.7393L127.853 79.8838C126.907 78.2439 125.948 76.6062 124.989 74.9941L124.031 73.3916ZM119.078 76.9648C120.002 78.5069 120.93 80.0784 121.848 81.6582L122.763 83.2402C124.135 85.6229 126.73 86.9719 129.433 86.7373L129.696 86.71C133.474 86.2392 137.296 86.2097 141.071 86.6201L141.825 86.708H141.826C144.613 87.0569 147.334 85.6983 148.752 83.2373H148.753C149.971 81.1204 151.209 79.0125 152.436 76.9648L153.101 75.8545L154.297 76.3496L164.653 80.6396L165.849 81.1348L165.535 82.3896C165.098 84.134 164.642 85.9013 164.175 87.667L163.704 89.4307C162.989 92.0865 163.87 94.8742 165.944 96.6172L166.148 96.7832C169.145 99.1169 171.868 101.799 174.251 104.764L174.722 105.359C176.4 107.514 179.159 108.486 181.82 107.874L182.078 107.81L183.848 107.337C185.619 106.869 187.385 106.414 189.122 105.979L190.377 105.663L190.872 106.859L195.162 117.216L195.657 118.411L194.548 119.076C193.005 120.001 191.433 120.929 189.853 121.848L188.271 122.763C185.887 124.135 184.539 126.732 184.774 129.435L184.802 129.696C185.271 133.471 185.302 137.293 184.891 141.07L184.803 141.824C184.467 144.529 185.73 147.164 188.047 148.614L188.274 148.751C190.385 149.966 192.494 151.204 194.548 152.436L195.657 153.101L195.162 154.296L190.872 164.653L190.377 165.849L189.121 165.534C187.382 165.098 185.617 164.643 183.848 164.175L182.08 163.703C179.424 162.988 176.637 163.869 174.894 165.943L174.729 166.147L174.728 166.148C172.394 169.145 169.712 171.868 166.748 174.25L166.151 174.723C163.998 176.399 163.025 179.158 163.637 181.82L163.702 182.077C164.337 184.435 164.952 186.802 165.533 189.121L165.848 190.376L164.652 190.871L154.296 195.161L153.099 195.656L152.434 194.547C151.517 193.016 150.592 191.447 149.67 189.861L148.749 188.271V188.27C147.333 185.81 144.618 184.453 141.816 184.801V184.802C137.79 185.303 133.709 185.303 129.688 184.804L129.689 184.803C126.984 184.468 124.348 185.732 122.898 188.047L122.761 188.273C121.551 190.376 120.313 192.484 119.077 194.547L118.412 195.657L117.217 195.162L106.859 190.872L105.664 190.377L105.978 189.121C106.412 187.391 106.867 185.628 107.336 183.855L107.809 182.08C108.524 179.426 107.643 176.638 105.569 174.895L105.365 174.729C102.367 172.395 99.6444 169.713 97.2615 166.748L96.7898 166.151C95.0601 163.929 92.1769 162.964 89.4353 163.701V163.702C87.0811 164.336 84.7133 164.951 82.3904 165.533L81.1355 165.848L80.6404 164.652L76.3513 154.295L75.8562 153.099L76.9666 152.434C78.5113 151.508 80.0835 150.58 81.6619 149.662L83.2419 148.748C85.6249 147.376 86.9733 144.78 86.739 142.077L86.7117 141.815C86.2416 138.039 86.2115 134.216 86.6218 130.44L86.7097 129.687C87.0461 126.982 85.7827 124.346 83.4666 122.896L83.239 122.76C81.1249 121.542 79.0165 120.305 76.9656 119.075L75.8562 118.41L76.3513 117.215L80.6414 106.858L81.1365 105.662L82.3914 105.977C84.1312 106.413 85.897 106.868 87.6648 107.336L89.4324 107.808C92.09 108.522 94.8765 107.641 96.6189 105.567L96.7839 105.363L97.2556 104.768C99.4773 102.005 101.998 99.4844 104.764 97.2607L105.361 96.7891C107.515 95.1125 108.487 92.3538 107.875 89.6914L107.811 89.4346C107.177 87.0785 106.561 84.7108 105.979 82.3896L105.665 81.1348L106.86 80.6396L117.218 76.3496L118.413 75.8545L119.078 76.9648Z" fill="#E88E73" stroke="#131313" stroke-width="3"/>
<path d="M147.031 108.415C132.019 102.198 114.747 109.353 108.53 124.363L108.52 124.388C102.418 139.159 109.255 156.111 123.779 162.565L124.478 162.865C128.119 164.372 131.938 165.125 135.755 165.125C139.333 165.125 142.914 164.463 146.347 163.138L147.031 162.865C154.078 159.945 159.612 154.543 162.69 147.594L162.98 146.917L163.261 146.212C168.881 131.605 162.031 115.07 147.73 108.715L147.031 108.415ZM135.783 112.259C138.576 112.259 141.409 112.761 144.154 113.819L144.702 114.039C156.428 118.896 162.112 132.25 157.579 144.028L157.356 144.588C155.041 150.174 150.748 154.57 145.239 157.011L144.702 157.242C139.114 159.556 132.971 159.628 127.35 157.459L126.807 157.242C115.081 152.385 109.397 139.03 113.929 127.252L114.152 126.692C117.88 117.694 126.609 112.259 135.783 112.259Z" fill="#E88E73" stroke="#131313" stroke-width="3"/>
<path fill-rule="evenodd" clip-rule="evenodd" d="M58.0847 4.55933L61.0584 13.6785L71.3669 17.6433L79.6931 13.6785L89.407 22.0046L83.8562 29.9343L89.407 42.4236L97.1384 44.6042V58.2829L88.0193 61.6531L83.8562 72.3581L88.0193 80.0896L81.4773 88.8122L71.3669 84.4509L58.0847 90.3982L54.9129 99.1208L44.0095 97.9314V87.2263L31.322 84.4509L22.2029 88.8122L14.075 80.0896L19.6257 72.3581L14.075 58.2829L4.55935 55.904V45.7937L14.075 42.4236L19.6257 29.9343L14.075 22.0046L23.7888 13.6785L31.322 19.6257L42.4236 12.489L46.3884 4.55933H58.0847ZM64.2302 45.7937L54.9129 39.2517L42.4236 42.4236L36.0798 48.7673L37.6658 55.904L41.0359 63.4372L49.5603 67.2038L58.0847 65.2214L64.2302 57.0935V45.7937Z" fill="#E88E73" stroke="#131313" stroke-width="3"/>
<path d="M56.0052 1.49976H47.141C44.4316 1.49999 42.0677 3.46345 41.5482 6.09058L41.5033 6.34644C41.2699 7.90601 41.0444 9.50938 40.8285 11.1248L40.6996 12.0837L39.7738 12.3621C37.1509 13.151 34.6086 14.2044 32.1947 15.5037L31.3422 15.9626L30.5726 15.3748C29.9286 14.8826 29.283 14.3933 28.639 13.9089L26.7142 12.4724C24.5449 10.8674 21.4774 11.0415 19.4896 12.8523L19.3002 13.033L13.0326 19.2996C11.1168 21.2144 10.8323 24.2745 12.3226 26.5007L12.472 26.7126C13.4129 27.9841 14.3873 29.2787 15.3754 30.571L15.9633 31.3406L15.5043 32.1931C14.2049 34.6076 13.1512 37.15 12.3627 39.7722L12.0844 40.699L11.1254 40.8269C10.3179 40.9346 9.51298 41.0451 8.71521 41.158L6.34705 41.5027C3.59244 41.915 1.50075 44.3438 1.50037 47.1414V56.0046C1.50037 58.7145 3.46334 61.0785 6.09119 61.5984L6.34705 61.6433C7.90685 61.8768 9.51054 62.1032 11.1254 62.3191L12.0844 62.447L12.3627 63.3738C13.1515 65.9969 14.2055 68.5385 15.5043 70.9529L15.9633 71.8054L15.3744 72.575C14.8814 73.2196 14.3918 73.8657 13.9076 74.5095L12.474 76.4314V76.4324C10.8686 78.6027 11.0422 81.6705 12.8529 83.658L13.0336 83.8464L19.3011 90.113V90.114C21.2162 92.0294 24.2761 92.3132 26.5013 90.823L26.7142 90.6726C27.9897 89.7289 29.2854 88.7549 30.5726 87.7703L31.3412 87.1824L32.1947 87.6414C34.6093 88.9408 37.1509 89.995 39.7728 90.783L40.6996 91.0613L40.8285 92.0203C40.9364 92.8278 41.0468 93.6326 41.1595 94.4304L41.5033 96.7996C41.9154 99.555 44.3443 101.646 47.141 101.646H56.0052C58.7148 101.646 61.0791 99.6828 61.599 97.0554L61.6439 96.7996C61.8774 95.2391 62.1037 93.6353 62.3187 92.0212L62.4467 91.0623L63.3734 90.783L64.3529 90.4753C66.6293 89.7277 68.8403 88.7794 70.9535 87.6423L71.806 87.1833L72.5746 87.7712C73.2187 88.2634 73.8643 88.7527 74.5082 89.2371L76.433 90.6726C78.603 92.2776 81.6703 92.1042 83.6576 90.2937L83.8461 90.113H83.847L90.1146 83.8455L90.2953 83.656C92.0467 81.734 92.2661 78.7989 90.8246 76.6453L90.6752 76.4324C89.7332 75.1594 88.7589 73.8653 87.7719 72.574L87.184 71.8044L87.6429 70.9529C88.942 68.5383 89.9956 65.9954 90.7845 63.3728L91.0629 62.446L92.0219 62.3181L94.432 61.9871L96.8002 61.6423C99.5551 61.23 101.647 58.8016 101.647 56.0046V47.1414C101.647 44.4317 99.6836 42.0677 97.056 41.5476L96.7992 41.5027C95.2395 41.2692 93.6356 41.0428 92.0209 40.8269L91.0619 40.699L90.7836 39.7722C89.9947 37.1494 88.9407 34.6075 87.642 32.1931L87.184 31.3406L87.7719 30.571C88.2657 29.9251 88.7562 29.2786 89.2406 28.6345L90.6732 26.7136C92.2786 24.543 92.1044 21.4746 90.2933 19.4871L90.1127 19.2986L83.8461 13.032C81.9309 11.1162 78.8711 10.8321 76.6449 12.323L76.432 12.4724C75.1567 13.4156 73.8618 14.3892 72.5746 15.3738L71.8051 15.9626L70.9525 15.5037C68.539 14.2044 65.9964 13.151 63.3734 12.3621L62.4467 12.0837L62.3187 11.1248C62.2108 10.3169 62.1004 9.51149 61.9877 8.71362L61.6429 6.34644C61.231 3.59218 58.8022 1.49976 56.0052 1.49976ZM7.1322 47.0789L8.41638 46.8923C9.13231 46.7883 9.85601 46.6859 10.5834 46.5857L12.7738 46.2917C14.9912 46.0024 16.8102 44.4725 17.474 42.3718L17.5345 42.1667C18.2558 39.5506 19.282 37.0193 20.5873 34.6355L20.8519 34.1609C21.9476 32.2314 21.8203 29.8579 20.5326 28.0486L20.4047 27.8748C19.5047 26.7047 18.6132 25.5295 17.7465 24.3679L16.9711 23.3279L17.8881 22.4099L22.4095 17.8875L23.3275 16.9705L24.3676 17.7458C24.951 18.181 25.5361 18.6217 26.1215 19.0652L27.8754 20.4031V20.4041C29.6469 21.7664 32.0159 21.9712 33.973 20.9539L34.1615 20.8513L34.6361 20.5867C36.8603 19.3685 39.2134 18.3934 41.6449 17.6824L42.1674 17.5339C44.3037 16.9455 45.8913 15.1772 46.2601 12.9861L46.2924 12.7722C46.4832 11.3081 46.6844 9.84757 46.892 8.41675L47.0785 7.13257H56.0697L56.2562 8.41675C56.36 9.13234 56.4616 9.85562 56.5619 10.5828L56.8558 12.7732L56.8568 12.7742C57.1452 14.9899 58.6742 16.8091 60.7758 17.4734L60.9808 17.5339H60.9818C63.5975 18.2554 66.1284 19.2815 68.5111 20.5867L68.9857 20.8513C70.9177 21.9484 73.2916 21.8208 75.1 20.532L75.2728 20.4041L75.2738 20.4031L77.0267 19.0652C77.6118 18.6218 78.1969 18.1817 78.7797 17.7468L79.8197 16.9705L80.7377 17.8875L85.2592 22.4099L86.1771 23.3279L85.4008 24.3679C84.5343 25.5288 83.6432 26.7035 82.7435 27.8728V27.8738C81.3807 29.6463 81.176 32.0156 82.1937 33.9724L82.2963 34.1599V34.1609C83.639 36.5245 84.7036 39.0393 85.4652 41.6443L85.6136 42.1658V42.1667C86.2018 44.3024 87.9698 45.8897 90.1605 46.2585L90.3744 46.2908C91.8396 46.4817 93.3 46.6828 94.7308 46.8904L96.015 47.0769V56.0671L94.7318 56.2537C94.0157 56.3579 93.2922 56.4611 92.5648 56.5613L90.3744 56.8542C88.1571 57.1436 86.3381 58.6735 85.6742 60.7742L85.6136 60.9792C84.8924 63.5957 83.8662 66.1273 82.5609 68.5105L82.2963 68.9851C81.2001 70.9142 81.3271 73.2875 82.6146 75.0974L82.7426 75.2703C83.6421 76.4395 84.5328 77.6153 85.4008 78.7791L86.1761 79.8191L85.2592 80.7361L80.7377 85.2585L79.8207 86.1755L78.7806 85.4001C78.1972 84.965 77.6112 84.5244 77.0258 84.0808L75.2719 82.7429V82.7419C73.5008 81.3789 71.1318 81.1755 69.1742 82.1931L68.9857 82.2947C66.4644 83.7266 63.7716 84.8422 60.9808 85.6111V85.6121C58.8439 86.2009 57.2557 87.9695 56.8871 90.1609L56.8558 90.3738V90.3748C56.6646 91.8382 56.4628 93.2981 56.2552 94.7292L56.0687 96.0144H47.0775L46.891 94.7302C46.7869 94.0143 46.6845 93.2907 46.5844 92.5632L46.2914 90.3718C46.003 88.1559 44.4732 86.3368 42.3715 85.6726L42.1664 85.6121C39.3764 84.8428 36.6825 83.7269 34.1615 82.2947L34.1625 82.2937C32.2319 81.1979 29.857 81.3253 28.0482 82.614L27.8754 82.7419L27.8744 82.7429C26.7088 83.6392 25.533 84.5304 24.3676 85.4001L23.3275 86.1755L22.4095 85.2585L17.8881 80.7361L16.9701 79.8181L17.7474 78.7781C18.6149 77.6161 19.5065 76.4401 20.4047 75.2722H20.4037C21.7673 73.4989 21.9721 71.1302 20.9545 69.1736L20.8519 68.9861V68.9851C19.5096 66.622 18.4447 64.1072 17.683 61.5017L17.5345 60.9802V60.9792C16.9463 58.8434 15.1777 57.2561 12.9867 56.8875L12.7738 56.8552C11.3085 56.6643 9.84827 56.4632 8.41736 56.2556L7.1322 56.0691V47.0789Z" fill="#E88E73" stroke="#131313" stroke-width="3"/>
<path d="M51.5728 34.6755C42.2568 34.6756 34.6753 42.257 34.6753 51.573C34.6754 60.8893 42.2569 68.4704 51.5728 68.4705C60.8887 68.4705 68.4701 60.8893 68.4702 51.573C68.4702 42.257 60.8884 34.6755 51.5728 34.6755ZM51.5728 39.8533C58.0358 39.8533 63.2923 45.1085 63.2925 51.572C63.2925 58.0357 58.0356 63.2917 51.5728 63.2917C45.1095 63.2916 39.854 58.0356 39.854 51.572L39.8579 51.2703C40.019 44.9463 45.2105 39.8534 51.5728 39.8533Z" fill="#E88E73" stroke="#131313" stroke-width="3"/>
</svg>
