<svg width="73" height="72" viewBox="0 0 73 72" fill="none" xmlns="http://www.w3.org/2000/svg">
<path d="M47.6167 0.5C61.3334 0.50025 72.502 11.5562 72.4995 25.1621H72.5005V46.8379C72.5005 60.4412 61.3335 71.4997 47.6167 71.5H25.7446C12.0251 71.5 0.857923 60.4414 0.85791 46.8379V25.1621C0.857924 11.5586 12.0251 0.5 25.7446 0.5H47.6167Z" fill="#0E55B9" stroke="black"/>
<path d="M71.9624 24.3856C71.543 11.4235 60.7978 1 47.6188 1H25.7468C12.5653 1 1.82015 11.4235 1.4007 24.3856H71.9624Z" fill="#EFEFEF"/>
<path d="M1.39813 47.6118C1.81759 60.5739 12.5627 70.9974 25.7442 70.9974H47.6163C60.7953 70.9974 71.5404 60.5739 71.9599 47.6118H1.39813Z" fill="#D1401E"/>
<path opacity="0.13" d="M71.9953 25.172V46.8253C71.9953 60.1658 61.0693 70.9924 47.6065 70.9924H25.7545C22.8886 70.9924 20.1534 70.4947 17.5914 69.5987L39.6192 67.732C62.3779 64.6209 63.2545 49.3889 63.2545 49.3889L63.154 22.932C63.154 22.932 62.6768 7.37644 43.7635 1.00488H47.604C61.0693 1.00488 71.9953 11.8315 71.9953 25.172Z" fill="#160204"/>
</svg>
