<svg width="73" height="72" viewBox="0 0 73 72" fill="none" xmlns="http://www.w3.org/2000/svg">
<path d="M47.7047 0.500244C61.3746 0.500244 72.4996 11.5607 72.4996 25.1624V46.8381C72.4994 60.4395 61.3745 71.4993 47.7047 71.4993H25.9127C12.2418 71.4993 1.11511 60.4396 1.11487 46.8381V25.1624C1.11487 11.5607 12.2417 0.500244 25.9127 0.500244H47.7047Z" fill="#EFEFEF" stroke="black"/>
<path d="M43.6255 0.5V29.2168H72.5005V42.7832H43.6255V71.5H29.9888V42.7832H1.11475V29.2168H29.9888V0.5H43.6255Z" fill="#D1401E" stroke="black"/>
<path d="M50.2499 45.5396L50.3964 45.6851L66.7274 61.9272L67.0526 62.2505L66.7587 62.603C65.7899 63.7604 64.7163 64.8272 63.5526 65.7905L63.203 66.0806L62.8807 65.7603L46.5497 49.5181L46.4022 49.3716V45.5396H50.2499Z" fill="#D1401E" stroke="black"/>
<path d="M27.2124 26.46H23.3647L23.2183 26.3154L6.88721 10.0732L6.56201 9.74902L6.85693 9.39746C7.82568 8.24163 8.89991 7.17204 10.064 6.20996L10.4136 5.92188L10.7349 6.24121L27.0649 22.4814L27.2124 22.6289V26.46Z" fill="#D1401E" stroke="black"/>
<path d="M63.5526 6.20801C64.7162 7.17286 65.7894 8.24017 66.7596 9.39746L67.0546 9.74902L66.7294 10.0732L50.3964 26.3154L50.2499 26.4609H46.4022V22.6289L46.5497 22.4814L62.8807 6.23828L63.203 5.91797L63.5526 6.20801Z" fill="#D1401E" stroke="black"/>
<path d="M27.2124 45.5396V49.3716L27.0649 49.5181L10.7349 65.7603L10.4136 66.0806L10.064 65.7905C8.90024 64.8272 7.82561 63.7587 6.85693 62.603L6.56201 62.2505L6.88721 61.9272L23.2183 45.6851L23.3647 45.5396H27.2124Z" fill="#D1401E" stroke="black"/>
<path d="M5.32019 12.5676L18.5917 25.6038L19.4637 26.4612H1.11511V25.1614C1.1152 20.6059 2.36531 16.3351 4.53992 12.6692L4.86511 12.1204L5.32019 12.5676Z" fill="#0E55B9" stroke="black"/>
<path d="M19.4608 45.5388L18.5887 46.3953L5.31628 59.4246L4.86121 59.8718L4.53601 59.323C2.364 55.6586 1.11515 51.3903 1.11511 46.8376V45.5388H19.4608Z" fill="#0E55B9" stroke="black"/>
<path d="M72.5 45.5388V46.8376C72.5 51.3969 71.2478 55.6707 69.0703 59.3386L68.7441 59.8875L68.29 59.4402L55.0186 46.3953L54.1475 45.5388H72.5Z" fill="#0E55B9" stroke="black"/>
<path d="M69.0797 12.6763L69.4762 13.3706C71.4028 16.8755 72.4996 20.8938 72.4996 25.1616V26.4614H54.1539L55.026 25.604L68.2994 12.5747L68.7545 12.1274L69.0797 12.6763Z" fill="#0E55B9" stroke="black"/>
<path d="M47.7053 0.500244C52.2815 0.500315 56.5721 1.74189 60.2561 3.90161L60.8127 4.22778L60.3586 4.68481L47.2561 17.885L46.4016 18.7463V0.500244H47.7053Z" fill="#0E55B9" stroke="black"/>
<path d="M27.2128 71.5H25.913C21.6221 71.5 17.5818 70.4083 14.0575 68.4922L13.3593 68.0977L12.8036 67.7725L13.2577 67.3145L26.3583 54.1152L27.2128 53.2539V71.5Z" fill="#0E55B9" stroke="black"/>
<path d="M47.2563 54.1077L60.3735 67.3059L60.8276 67.7629L60.272 68.0891C56.5845 70.2544 52.2881 71.4992 47.7056 71.4993H46.4019V53.2473L47.2563 54.1077Z" fill="#0E55B9" stroke="black"/>
<path d="M27.213 0.500244V18.7493L26.3585 17.8879L13.2501 4.6897L12.796 4.23267L13.3517 3.90649C17.038 1.74392 21.3322 0.500303 25.9122 0.500244H27.213Z" fill="#0E55B9" stroke="black"/>
<path opacity="0.13" d="M47.694 0.506104C61.381 0.506139 72.4938 11.5543 72.4938 25.1731V46.8264C72.4938 60.4451 61.3809 71.4934 47.694 71.4934H25.9215C23.0092 71.4934 20.2252 70.985 17.6217 70.0715L17.7457 69.1008L39.6793 67.2356C50.8885 65.6949 56.6446 61.1734 59.608 57.0999C61.0954 55.0553 61.8909 53.1078 62.3141 51.676C62.5256 50.9603 62.6444 50.3738 62.7096 49.97C62.7422 49.7683 62.7611 49.6118 62.7721 49.5081C62.7776 49.4563 62.7808 49.4177 62.7828 49.3928C62.7834 49.3859 62.7835 49.38 62.7838 49.3752L62.6842 22.9348H62.6832C62.683 22.9293 62.6837 22.9221 62.6832 22.9133C62.6819 22.887 62.6792 22.8456 62.6754 22.7913C62.6678 22.6826 62.6545 22.5198 62.6305 22.3088C62.5824 21.8861 62.4933 21.2699 62.3278 20.509C61.9965 18.9868 61.3613 16.8874 60.149 14.592C57.73 10.0119 52.9963 4.62161 43.7037 1.47974L43.8639 0.506104H47.694Z" fill="#160204" stroke="black"/>
</svg>
