<svg width="145" height="141" viewBox="0 0 145 141" fill="none" xmlns="http://www.w3.org/2000/svg">
<path d="M69.0426 57.548C67.3936 59.303 65.7605 61.0849 64.1452 62.8954C63.0078 63.8821 61.7196 64.5975 60.2662 65.0462C45.9725 67.6294 31.7021 70.3292 17.455 73.1441C15.0493 73.2248 13.2118 72.7109 11.8234 71.7271C10.438 70.7453 9.34788 69.1881 8.6309 66.9028C6.73262 52.058 4.95152 37.1993 3.28783 22.3264C3.36282 20.6798 3.86776 19.2069 4.8137 17.8739C6.72501 15.9337 8.61249 13.9745 10.4768 11.997L69.0426 57.548Z" fill="#C36C52" stroke="#131313" stroke-width="3"/>
<path d="M16.9867 7.72298C30.855 7.01513 44.7217 6.28132 58.5867 5.5211C60.5577 5.72387 62.0795 6.33702 63.2375 7.28975C64.4036 8.24907 65.3041 9.63852 65.8863 11.5576C68.3417 24.0814 70.7723 36.6098 73.1778 49.1425C73.453 52.3403 72.39 54.8316 69.9328 56.7881C69.2635 57.0674 68.6101 57.3851 67.9716 57.7402C53.293 60.5521 38.6126 63.3552 23.9312 66.1516C21.6137 66.195 19.8267 65.6797 18.4625 64.7151C17.1019 63.7529 16.0219 62.2455 15.2907 60.0555C13.3952 45.2314 11.6167 30.3933 9.95509 15.5412C10.1103 14.0989 10.4821 12.7335 11.0693 11.437C12.5308 9.38056 14.4764 8.15638 16.9867 7.72298Z" fill="#E88E73" stroke="#131313" stroke-width="3"/>
<path d="M49.2587 105.438C51.039 108.053 52.7924 110.701 54.5148 113.385C55.7716 114.886 57.2813 116.066 59.0567 116.935C76.2578 122.954 93.4071 129.112 110.505 135.409C113.541 136.001 116.015 135.73 118.026 134.737C120.034 133.745 121.749 131.951 123.117 129.19C128.397 111.163 133.536 93.096 138.531 74.9883C138.778 72.8417 138.427 70.8272 137.471 68.9079C135.415 66.029 133.395 63.1296 131.41 60.2111L49.2587 105.438Z" fill="#C36C52" stroke="#131313" stroke-width="3"/>
<path d="M124.175 53.7709C107.127 50.1592 90.0861 46.5159 73.0528 42.8398C70.4997 42.694 68.408 43.1631 66.7035 44.1632C64.9903 45.1685 63.5527 46.779 62.4268 49.1017C56.9136 64.1406 51.4299 79.1899 45.9769 94.2496C44.9685 98.2974 45.8379 101.737 48.6114 104.75C49.406 105.238 50.1722 105.773 50.9104 106.355C68.559 112.738 86.2111 119.112 103.866 125.477C106.802 126.006 109.211 125.72 111.186 124.747C113.157 123.776 114.85 122.046 116.218 119.405C121.494 101.396 126.627 83.3468 131.617 65.2567C131.716 63.3784 131.519 61.5523 131.028 59.7719C129.576 56.8193 127.316 54.8375 124.175 53.7709Z" fill="#E88E73" stroke="#131313" stroke-width="3"/>
</svg>
